<?xml version="1.0" encoding="utf-8"?>
<!-- Generator: Adobe Illustrator 23.0.3, SVG Export Plug-In . SVG Version: 6.00 Build 0)  -->
<svg version="1.1" id="Capa_1" xmlns="http://www.w3.org/2000/svg" xmlns:xlink="http://www.w3.org/1999/xlink" x="0px" y="0px"
	 viewBox="0 0 187 187" style="enable-background:new 0 0 187 187;" xml:space="preserve">
<style type="text/css">
	.st0{fill:#4CB5AB;}
	.st1{fill:#010101;}
	.st2{fill:#3EC4FE;}
	.st3{fill:#040404;}
	.st4{fill:#020202;}
	.st5{fill:#FFD63F;}
	.st6{fill:#FF5454;}
	.st7{fill:none;stroke:#FFD63F;stroke-width:15;stroke-linecap:round;stroke-miterlimit:10;}
	.st8{fill:#030303;}
	.st9{fill:url(#SVGID_1_);}
	.st10{fill:url(#SVGID_2_);}
	.st11{fill:url(#SVGID_3_);}
	.st12{fill:url(#SVGID_4_);}
	.st13{fill:url(#SVGID_5_);}
	.st14{fill:url(#SVGID_6_);}
	.st15{fill:url(#SVGID_7_);}
	.st16{fill:url(#SVGID_8_);}
	.st17{fill:url(#SVGID_9_);}
	.st18{fill:#9469F7;}
	.st19{fill:#731A7C;}
	.st20{fill:#E83D24;}
	.st21{fill:#52B0D0;}
	.st22{fill:#DF4092;}
	.st23{fill:#2763BF;}
	.st24{fill:#50A730;}
	.st25{fill:#F7CF47;}
	.st26{fill:#ED8232;}
	.st27{fill:#BD356C;}
	.st28{fill:url(#SVGID_10_);}
	.st29{fill:url(#SVGID_11_);}
	.st30{fill:url(#SVGID_12_);}
	.st31{fill:url(#SVGID_13_);}
	.st32{fill:url(#SVGID_14_);}
	.st33{fill:url(#SVGID_15_);}
	.st34{fill:url(#SVGID_16_);}
	.st35{fill:url(#SVGID_17_);}
	.st36{fill:url(#SVGID_18_);}
</style>
<g>
	<g>
		<g>
			<g>
				<path class="st18" d="M147,88.9c-1.3-10.8-10-11.2-17-9.8c-3.7,0.8-6.7,3.9-6.7,3.9c-3.6-3.3-5.5-5.5-11.1-5
					c-5.2,0.4-9.3,3.8-9.3,3.8c-2.9-5.1-10.7-3.6-10.7-3.6c-3.1,1.2-3.2-0.6-3.2-2.9c0.1-5.7,0-11.4,0-17.1c0-3.9-1.3-7.2-4.1-9.9
					c-4.3-4.2-9.4-5.7-15.2-3.5c-6.6,2.5-9.6,7.5-9.7,14.4c-0.1,11.6,0,23.1,0,34.7c0,8.5,0,17.1,0,25.6c0,7.9,0,15.7,2.5,23.3
					c5.6,17.3,23.1,30,41.6,29.9c18.5-0.1,36.2-12.6,41-29.8C150.1,125.1,147.9,106.9,147,88.9z M137.9,131.4
					c-1,17.9-16.2,31.6-34,31.6c-17.8,0-33-13.8-34-31.6c-0.6-12-0.1-24.1-0.1-36.2c-0.1,0-0.1,0-0.2,0c0-11.6,0-23.1,0-34.7
					c0-3.7,0.6-7,5.2-6.9c4.2,0.1,4.9,3.3,4.9,6.8c0,13.4,0,26.8,0,40.2c0,3.4,0.3,6.8,4.6,6.9c4.4,0.1,4.8-3.2,4.8-6.7
					c0-2.7-0.1-5.4,0.1-8c0.3-3,1.9-5.2,5.1-5.1c3.1,0.1,4.8,2.1,4.8,5.3c0,3-0.1,6,0,9c0.1,3,1.2,5.3,4.6,5.4
					c3.7,0.1,4.9-2.4,5-5.6c0.1-2.8,0-5.7,0-8.5c0-3.4,1.5-5.6,4.9-5.7c3.5,0,4.9,2.4,5.1,5.6c0.1,2.8,0.1,5.7,0,8.5
					c0,3.3,1.3,5.7,4.9,5.6c3.3-0.1,4.5-2.3,4.5-5.5c0-3-0.1-6,0-9c0.2-3,1.6-5.3,4.9-5.3c3.4,0,5.1,2.1,5.1,5.5
					C138.1,105.9,138.5,118.7,137.9,131.4z"/>
			</g>
		</g>
		<g>
			<path class="st18" d="M50.5,80c-1.7,0-3.3-0.8-4.2-2.3c-3.3-5.2-5.1-11.3-5.1-17.6c0-18.1,14.7-32.8,32.8-32.8
				s32.8,14.7,32.8,32.8c0,2.8-2.2,5-5,5s-5-2.2-5-5c0-12.6-10.2-22.8-22.8-22.8S51.2,47.6,51.2,60.1c0,4.3,1.2,8.6,3.5,12.2
				c1.5,2.3,0.8,5.4-1.5,6.9C52.3,79.7,51.4,80,50.5,80z"/>
		</g>
		<g>
			<path class="st18" d="M38,87.3c-1.7,0-3.3-0.8-4.2-2.3c-4.8-7.6-7.4-16.4-7.4-25.5C26.4,33.3,47.7,12,73.9,12
				s47.6,21.3,47.6,47.6c0,2.8-2.2,5-5,5s-5-2.2-5-5c0-20.7-16.8-37.6-37.6-37.6S36.4,38.8,36.4,59.6c0,7.2,2,14.1,5.8,20.1
				c1.5,2.3,0.8,5.4-1.5,6.9C39.9,87.1,38.9,87.3,38,87.3z"/>
		</g>
	</g>
</g>
</svg>
